<?xml version="1.0" encoding="iso-8859-1"?>
<!-- Uploaded to: SVG Repo, www.svgrepo.com, Generator: SVG Repo Mixer Tools -->
<svg fill="#000000" height="800px" width="800px" version="1.1" id="Layer_1" xmlns="http://www.w3.org/2000/svg" xmlns:xlink="http://www.w3.org/1999/xlink" 
	 viewBox="0 0 510.737 510.737" xml:space="preserve">
<g transform="translate(1 1)">
	<g>
		<g>
			<path d="M509.293,500.555v-128c0-5.12-3.413-8.533-8.533-8.533h-15.943c-4.959-53.787-33.622-93.867-67.684-93.867
				c-34.872,0-62.805,40.08-67.69,93.867h-26.76c-4.959-53.787-33.622-93.867-67.684-93.867c-34.872,0-62.805,40.08-67.69,93.867
				h-26.76c-4.959-53.787-33.622-93.867-67.684-93.867c-34.872,0-62.805,40.08-67.69,93.867H7.533c-5.12,0-8.533,3.413-8.533,8.533
				v128c0,5.12,3.413,8.533,8.533,8.533h110.933c3.413,0,5.973-1.707,7.68-5.12l31.573-63.147h32.427l31.573,63.147
				c1.707,3.413,4.267,5.12,7.68,5.12h51.2c3.413,0,5.973-1.707,7.68-5.12l31.573-63.147h32.427l31.573,63.147
				c1.707,3.413,4.267,5.12,7.68,5.12h110.933C507.587,509.089,511,505.675,509.293,500.555z M417.133,287.222
				c25.171,0,47.852,36.305,51.039,81.323l-39.161,62.49c-2.562,0.611-5.12,1.024-7.657,1.253h-9.013
				c-3.029-0.282-5.995-0.846-8.863-1.707l-37.547-59.733C369.347,324.769,391.533,287.222,417.133,287.222z M255,287.222
				c25.399,0,48.267,36.965,51.125,82.548l-38.23,61.006c-2.902,0.749-5.801,1.253-8.673,1.513h-9.013
				c-3.029-0.282-5.995-0.846-8.863-1.707L203.8,370.849C207.213,324.769,229.4,287.222,255,287.222z M92.867,287.222
				c25.6,0,48.64,37.547,51.2,83.627l-37.547,59.733c-3.155,0.86-6.309,1.425-9.432,1.707h-9.012
				c-2.767-0.258-5.479-0.757-8.114-1.497l-34.54-53.969l-3.755-5.973C45.08,324.769,67.267,287.222,92.867,287.222z
				 M493.933,492.022h-97.28l-31.573-63.147c-1.707-3.413-4.267-5.12-7.68-5.12h-42.667c-3.413,0-5.973,2.56-7.68,5.12
				l-31.573,63.147h-40.96l-31.573-63.147c-1.707-3.413-4.267-5.12-7.68-5.12H152.6c-3.413,0-5.973,2.56-7.68,5.12l-31.573,63.147
				h-97.28V381.089h11.947l10.701,16.721l29.405,47.279l0.986,0.329c1.024,2.375,4.246,3.938,6.694,3.938h34.133
				c2.448,0,5.671-1.563,6.694-3.938l0.986-0.329l39.805-64h32.728l10.701,16.721l29.405,47.279l0.986,0.329
				c1.024,2.375,4.246,3.938,6.694,3.938h34.133c2.448,0,5.671-1.563,6.694-3.938l0.986-0.329l39.805-64h32.728l40.96,64
				c0.853,2.56,4.267,4.267,6.827,4.267H434.2c2.56,0,5.973-1.707,7.68-4.267h0l0.008-0.013l40.099-63.987h11.947V492.022z"/>
			<path d="M66.413,372.555h0.853c4.267,0,7.68-2.56,8.533-6.827c3.413-27.307,15.36-41.813,18.773-44.373
				c3.413-0.853,6.827-4.267,6.827-8.533c0-5.12-3.413-8.533-8.533-8.533c-12.8,0-29.867,24.747-34.133,58.88
				C57.88,368.289,61.293,372.555,66.413,372.555z"/>
			<path d="M256.707,321.355c3.413-0.853,6.827-4.267,6.827-8.533c0-5.12-3.413-8.533-8.533-8.533c-12.8,0-29.867,25.6-34.133,58.88
				c0,4.267,3.413,8.533,7.68,9.387h0.853c4.267,0,7.68-3.413,8.533-7.68C241.347,335.862,254.147,323.062,256.707,321.355z"/>
			<path d="M418.84,321.355c3.413-0.853,6.827-4.267,6.827-8.533c0-5.12-3.413-8.533-8.533-8.533c-12.8,0-29.867,25.6-34.133,58.88
				c0,4.267,3.413,8.533,7.68,9.387h0.853c4.267,0,7.68-3.413,8.533-7.68C403.48,335.862,416.28,323.062,418.84,321.355z"/>
			<path d="M448.707,62.795l25.6-25.6V25.249l-25.6-25.6H436.76l-25.6,25.6v11.947l25.6,25.6H448.707z M442.733,17.569
				l13.653,13.653l-13.653,13.653L429.08,31.222L442.733,17.569z"/>
			<path d="M203.8,56.822c14.507,0,25.6,11.093,25.6,25.6c0,5.12,3.413,8.533,8.533,8.533s8.533-3.413,8.533-8.533
				c0-14.507,11.093-25.6,25.6-25.6c5.12,0,8.533-3.413,8.533-8.533s-3.413-8.533-8.533-8.533c-14.507,0-25.6-11.093-25.6-25.6
				c0-5.12-3.413-8.533-8.533-8.533s-8.533,3.413-8.533,8.533c0,14.507-11.093,25.6-25.6,25.6c-5.12,0-8.533,3.413-8.533,8.533
				S198.68,56.822,203.8,56.822z M237.933,39.755c2.56,3.413,5.12,5.973,8.533,8.533c-3.413,2.56-5.973,5.12-8.533,8.533
				c-2.56-3.413-5.12-5.973-8.533-8.533C232.813,45.729,235.373,43.169,237.933,39.755z"/>
			<path d="M314.733,176.289h8.533v8.533c0,5.12,3.413,8.533,8.533,8.533c5.12,0,8.533-3.413,8.533-8.533v-8.533h8.533
				c5.12,0,8.533-3.413,8.533-8.533s-3.413-8.533-8.533-8.533h-8.533v-8.533c0-5.12-3.413-8.533-8.533-8.533
				c-5.12,0-8.533,3.413-8.533,8.533v8.533h-8.533c-5.12,0-8.533,3.413-8.533,8.533S309.613,176.289,314.733,176.289z"/>
			<path d="M135.533,167.755c5.12,0,8.533-3.413,8.533-8.533s-3.413-8.533-8.533-8.533S127,154.102,127,159.222
				S130.413,167.755,135.533,167.755z"/>
			<path d="M50.2,56.822c5.12,0,8.533-3.413,8.533-8.533s-3.413-8.533-8.533-8.533s-8.533,3.413-8.533,8.533
				S45.08,56.822,50.2,56.822z"/>
		</g>
	</g>
</g>
</svg>